<?xml version="1.0" encoding="utf-8"?>
<!-- Generator: Adobe Illustrator 22.1.0, SVG Export Plug-In . SVG Version: 6.00 Build 0)  -->
<svg version="1.1" id="Layer_1" xmlns="http://www.w3.org/2000/svg" xmlns:xlink="http://www.w3.org/1999/xlink" x="0px" y="0px"
	 viewBox="0 0 3000 3000" style="enable-background:new 0 0 3000 3000;" xml:space="preserve">
<style type="text/css">
	.st0{display:none;}
	.st1{fill:#FFFFFF;}
</style>
<rect x="2.6" y="2.3" class="st0" width="3000" height="3000"/>
<g>
	<g>
		<g>
			<g>
				<path class="st1" d="M1525.1,1535.5v-151.4h66.9c33,0,47.7,24.3,47.7,48.4c0,13.3-4.4,25.3-12.4,34
					c-8.6,9.4-20.8,14.4-35.4,14.4h-38.1v54.5H1525.1z M1553.8,1454.3h34c13.2,0,22.4-9,22.4-21.8c0-13-9-21.8-22.4-21.8h-34V1454.3
					z"/>
				<path class="st1" d="M1731.3,1538.2c-43.3,0-74.7-32.9-74.7-78.3s31.4-78.3,74.7-78.3c43.4,0,74.9,32.9,74.9,78.3
					S1774.8,1538.2,1731.3,1538.2z M1731.3,1408.4c-26.5,0-45.1,21.2-45.1,51.5c0,30.3,18.5,51.5,45.1,51.5
					c26.7,0,45.3-21.2,45.3-51.5C1776.6,1429.6,1758,1408.4,1731.3,1408.4z"/>
				<path class="st1" d="M1883.4,1538.2c-25,0-45.2-7.9-60.1-23.4l15.5-23c7.5,7.9,22.8,20.1,46,20.1c18.2,0,26.3-9.1,26.3-18.1
					c0-11.9-14.4-15.5-31.1-19.7c-23.4-5.9-52.6-13.2-52.6-46.6c0-12.4,5.1-23.9,14.4-32.1c9.9-8.8,23.6-13.5,39.7-13.5
					c22.4,0,41,6.9,55.2,20.5l-15.9,22.2c-11-10.3-26.3-16.2-42.1-16.2c-13.4,0-21.8,6.3-21.8,16.5c0,10.5,13.7,13.9,29.6,17.9
					c24,6.1,53.9,13.6,53.9,47.4C1940.4,1520.2,1919.1,1538.2,1883.4,1538.2z"/>
				<polygon class="st1" points="1996.8,1535.5 1996.8,1410.7 1954.3,1410.7 1954.3,1384.1 2068.1,1384.1 2068.1,1410.7 
					2025.8,1410.7 2025.8,1535.5 				"/>
			</g>
		</g>
		<g>
			<g>
				<path class="st1" d="M1601.5,1284.5c0,22.6-15,36.2-39.8,36.2h-26.2v33.5h-10.3v-106h36.5
					C1586.4,1248.2,1601.5,1261.8,1601.5,1284.5z M1591.2,1284.5c0-17-10.3-26.6-29.8-26.6h-25.9v53h25.9
					C1580.9,1310.8,1591.2,1301.1,1591.2,1284.5z"/>
				<path class="st1" d="M1680.1,1325.8h-54.3l-11.7,28.3h-10.7l44.6-106h10.2l44.6,106h-10.9L1680.1,1325.8z M1676.3,1316.7
					l-23.4-56.9l-23.4,56.9H1676.3z"/>
				<path class="st1" d="M1708.8,1301.1c0-31,21.7-53.9,51.1-53.9c14.2,0,27,5.1,35.7,15.4l-6.5,7.1c-7.9-8.8-17.7-12.6-28.8-12.6
					c-23.5,0-41.2,18.8-41.2,43.9c0,25.1,17.7,43.9,41.2,43.9c11.1,0,20.9-3.8,28.8-12.7l6.5,7.1c-8.6,10.3-21.5,15.6-35.8,15.6
					C1730.5,1355,1708.8,1332.2,1708.8,1301.1z"/>
				<path class="st1" d="M1817.6,1248.2h10.3v106h-10.3V1248.2z"/>
				<path class="st1" d="M1870,1257.9v41.6h50.4v9.7H1870v45h-10.3v-106h66.9v9.7H1870z"/>
				<path class="st1" d="M1947.8,1248.2h10.3v106h-10.3V1248.2z"/>
				<path class="st1" d="M1981.3,1301.1c0-31,21.7-53.9,51.1-53.9c14.2,0,27,5.1,35.7,15.4l-6.5,7.1c-7.9-8.8-17.7-12.6-28.8-12.6
					c-23.5,0-41.2,18.8-41.2,43.9c0,25.1,17.7,43.9,41.2,43.9c11.1,0,20.9-3.8,28.8-12.7l6.5,7.1c-8.6,10.3-21.5,15.6-35.8,15.6
					C2003,1355,1981.3,1332.2,1981.3,1301.1z"/>
			</g>
		</g>
	</g>
	<g>
		<path class="st1" d="M1197.2,1466.1v-85.1h68.9c24.7,0,38.1,14.2,38.1,31.1c0,16.8-13.6,31.1-38.1,31.1h-44.7v22.8H1197.2z
			 M1279.5,1412.2c0-8.1-7.1-13-16.7-13h-41.5v26.1h41.5C1272.4,1425.3,1279.5,1420.2,1279.5,1412.2z"/>
		<path class="st1" d="M1321.1,1189.8c-8.2,0-15,5.5-17.2,12.9h-41.1c-2.2-7.5-9-12.9-17.2-12.9c-8.2,0-15,5.5-17.2,12.9h-41.1
			c-2.2-7.5-9-12.9-17.2-12.9c-9.9,0-17.9,8-17.9,17.9c0,9.9,8,17.9,17.9,17.9c8.2,0,15-5.5,17.2-12.9h41.1
			c1.7,5.8,6.3,10.5,12.1,12.2v25.3c-24.5,0.7-43.6,6.8-43.6,14.1c0,5.6,10.9,10.4,26.9,12.7c-15.9,2.3-26.9,7.2-26.9,12.7
			c0,5.6,10.9,10.4,26.9,12.7c-15.9,2.3-26.9,7.1-26.9,12.7c0,7.4,19.1,13.4,43.6,14.1v33.8h10.1v-33.8c24.5-0.7,43.6-6.8,43.6-14.1
			c0-5.6-10.9-10.4-26.9-12.7c15.9-2.3,26.9-7.2,26.9-12.7c0-5.6-10.9-10.4-26.9-12.7c15.9-2.3,26.9-7.2,26.9-12.7
			c0-7.4-19.1-13.4-43.6-14.1v-25.2c5.9-1.7,10.5-6.3,12.2-12.2h41.1c2.1,7.5,9,12.9,17.2,12.9c9.9,0,17.9-8,17.9-17.9
			C1338.9,1197.8,1330.9,1189.8,1321.1,1189.8z"/>
		<polygon class="st1" points="1250.7,1490.4 1240.4,1490.4 1240.4,1553.5 1195.2,1553.5 1195.2,1579.1 1296,1579.1 1296,1553.5 
			1250.7,1553.5 		"/>
		<g>
			<g>
				<path class="st1" d="M1425.7,1404.4c-8.8,0-16.3,5.8-18.6,13.7h-42v10.3h42c2.3,7.9,9.8,13.7,18.6,13.7
					c10.7,0,19.3-8.4,19.3-18.9C1445.1,1412.8,1436.4,1404.4,1425.7,1404.4z"/>
				<path class="st1" d="M1065.4,1404.4c-10.7,0-19.3,8.4-19.3,18.9c0,10.4,8.7,18.9,19.3,18.9c8.8,0,16.3-5.8,18.6-13.7h44.1V1418
					H1084C1081.7,1410.1,1074.2,1404.4,1065.4,1404.4z"/>
			</g>
			<g>
				<path class="st1" d="M1304.5,1495.1h-116.4c-38.6,0-70-32.2-70-71.8c0-39.6,31.4-71.8,70-71.8h116.4c38.6,0,70,32.2,70,71.8
					C1374.6,1462.8,1343.1,1495.1,1304.5,1495.1z M1188.1,1369.8c-28.7,0-52,23.9-52,53.4c0,29.4,23.3,53.4,52,53.4h116.4
					c28.7,0,52-23.9,52-53.4c0-29.4-23.3-53.4-52-53.4H1188.1z"/>
			</g>
		</g>
	</g>
</g>
</svg>
